<svg id="visual" viewBox="0 0 900 600" width="900" height="600" xmlns="http://www.w3.org/2000/svg" xmlns:xlink="http://www.w3.org/1999/xlink" version="1.1"><rect x="0" y="0" width="900" height="600" fill="#282c34"></rect><path d="M0 432L21.5 435.8C43 439.7 86 447.3 128.8 443.7C171.7 440 214.3 425 257.2 421.2C300 417.3 343 424.7 385.8 426.2C428.7 427.7 471.3 423.3 514.2 427C557 430.7 600 442.3 642.8 445.3C685.7 448.3 728.3 442.7 771.2 434C814 425.3 857 413.7 878.5 407.8L900 402L900 601L878.5 601C857 601 814 601 771.2 601C728.3 601 685.7 601 642.8 601C600 601 557 601 514.2 601C471.3 601 428.7 601 385.8 601C343 601 300 601 257.2 601C214.3 601 171.7 601 128.8 601C86 601 43 601 21.5 601L0 601Z" fill="#98c379"></path><path d="M0 448L21.5 455.8C43 463.7 86 479.3 128.8 481.3C171.7 483.3 214.3 471.7 257.2 464.8C300 458 343 456 385.8 452.7C428.7 449.3 471.3 444.7 514.2 448.7C557 452.7 600 465.3 642.8 468.2C685.7 471 728.3 464 771.2 465.7C814 467.3 857 477.7 878.5 482.8L900 488L900 601L878.5 601C857 601 814 601 771.2 601C728.3 601 685.7 601 642.8 601C600 601 557 601 514.2 601C471.3 601 428.7 601 385.8 601C343 601 300 601 257.2 601C214.3 601 171.7 601 128.8 601C86 601 43 601 21.5 601L0 601Z" fill="#8ab56b"></path><path d="M0 473L21.5 474C43 475 86 477 128.8 485.5C171.7 494 214.3 509 257.2 515.2C300 521.3 343 518.7 385.8 509.8C428.7 501 471.3 486 514.2 483.2C557 480.3 600 489.7 642.8 495.5C685.7 501.3 728.3 503.7 771.2 501.7C814 499.7 857 493.3 878.5 490.2L900 487L900 601L878.5 601C857 601 814 601 771.2 601C728.3 601 685.7 601 642.8 601C600 601 557 601 514.2 601C471.3 601 428.7 601 385.8 601C343 601 300 601 257.2 601C214.3 601 171.7 601 128.8 601C86 601 43 601 21.5 601L0 601Z" fill="#7ca75d"></path><path d="M0 507L21.5 512.3C43 517.7 86 528.3 128.8 531.3C171.7 534.3 214.3 529.7 257.2 529.3C300 529 343 533 385.8 537.3C428.7 541.7 471.3 546.3 514.2 541.8C557 537.3 600 523.7 642.8 518C685.7 512.3 728.3 514.7 771.2 518.8C814 523 857 529 878.5 532L900 535L900 601L878.5 601C857 601 814 601 771.2 601C728.3 601 685.7 601 642.8 601C600 601 557 601 514.2 601C471.3 601 428.7 601 385.8 601C343 601 300 601 257.2 601C214.3 601 171.7 601 128.8 601C86 601 43 601 21.5 601L0 601Z" fill="#6e994f"></path><path d="M0 540L21.5 541.7C43 543.3 86 546.7 128.8 547.8C171.7 549 214.3 548 257.2 549.5C300 551 343 555 385.8 556C428.7 557 471.3 555 514.2 558.2C557 561.3 600 569.7 642.8 571.7C685.7 573.7 728.3 569.3 771.2 565.7C814 562 857 559 878.5 557.5L900 556L900 601L878.5 601C857 601 814 601 771.2 601C728.3 601 685.7 601 642.8 601C600 601 557 601 514.2 601C471.3 601 428.7 601 385.8 601C343 601 300 601 257.2 601C214.3 601 171.7 601 128.8 601C86 601 43 601 21.5 601L0 601Z" fill="#608c41"></path></svg>