<svg id="visual" viewBox="0 0 960 540" width="960" height="540" xmlns="http://www.w3.org/2000/svg" xmlns:xlink="http://www.w3.org/1999/xlink" version="1.1"><rect x="0" y="0" width="960" height="540" fill="#282c34"></rect><path d="M0 378L22.8 387.8C45.7 397.7 91.3 417.3 137 410.8C182.7 404.3 228.3 371.7 274 357C319.7 342.3 365.3 345.7 411.2 361.7C457 377.7 503 406.3 548.8 410.7C594.7 415 640.3 395 686 396.2C731.7 397.3 777.3 419.7 823 414.5C868.7 409.3 914.3 376.7 937.2 360.3L960 344L960 541L937.2 541C914.3 541 868.7 541 823 541C777.3 541 731.7 541 686 541C640.3 541 594.7 541 548.8 541C503 541 457 541 411.2 541C365.3 541 319.7 541 274 541C228.3 541 182.7 541 137 541C91.3 541 45.7 541 22.8 541L0 541Z" fill="#98c379" stroke-linecap="round" stroke-linejoin="miter"></path></svg>