<svg id="visual" viewBox="0 0 900 600" width="900" height="600" xmlns="http://www.w3.org/2000/svg" xmlns:xlink="http://www.w3.org/1999/xlink" version="1.1"><rect x="0" y="0" width="900" height="600" fill="#282c34"></rect><path d="M0 208L21.5 206.8C43 205.7 86 203.3 128.8 194C171.7 184.7 214.3 168.3 257.2 174.8C300 181.3 343 210.7 385.8 214.3C428.7 218 471.3 196 514.2 196.3C557 196.7 600 219.3 642.8 222.7C685.7 226 728.3 210 771.2 209C814 208 857 222 878.5 229L900 236L900 0L878.5 0C857 0 814 0 771.2 0C728.3 0 685.7 0 642.8 0C600 0 557 0 514.2 0C471.3 0 428.7 0 385.8 0C343 0 300 0 257.2 0C214.3 0 171.7 0 128.8 0C86 0 43 0 21.5 0L0 0Z" fill="#98c379"></path><path d="M0 147L21.5 149.5C43 152 86 157 128.8 156.2C171.7 155.3 214.3 148.7 257.2 152C300 155.3 343 168.7 385.8 175.3C428.7 182 471.3 182 514.2 183.8C557 185.7 600 189.3 642.8 185C685.7 180.7 728.3 168.3 771.2 165C814 161.7 857 167.3 878.5 170.2L900 173L900 0L878.5 0C857 0 814 0 771.2 0C728.3 0 685.7 0 642.8 0C600 0 557 0 514.2 0C471.3 0 428.7 0 385.8 0C343 0 300 0 257.2 0C214.3 0 171.7 0 128.8 0C86 0 43 0 21.5 0L0 0Z" fill="#8ab56b"></path><path d="M0 128L21.5 128.5C43 129 86 130 128.8 130.3C171.7 130.7 214.3 130.3 257.2 128.5C300 126.7 343 123.3 385.8 126.5C428.7 129.7 471.3 139.3 514.2 141C557 142.7 600 136.3 642.8 126.8C685.7 117.3 728.3 104.7 771.2 102.8C814 101 857 110 878.5 114.5L900 119L900 0L878.5 0C857 0 814 0 771.2 0C728.3 0 685.7 0 642.8 0C600 0 557 0 514.2 0C471.3 0 428.7 0 385.8 0C343 0 300 0 257.2 0C214.3 0 171.7 0 128.8 0C86 0 43 0 21.5 0L0 0Z" fill="#7ca75d"></path><path d="M0 105L21.5 97.7C43 90.3 86 75.7 128.8 73.2C171.7 70.7 214.3 80.3 257.2 83.7C300 87 343 84 385.8 84C428.7 84 471.3 87 514.2 86.2C557 85.3 600 80.7 642.8 78.8C685.7 77 728.3 78 771.2 82.8C814 87.7 857 96.3 878.5 100.7L900 105L900 0L878.5 0C857 0 814 0 771.2 0C728.3 0 685.7 0 642.8 0C600 0 557 0 514.2 0C471.3 0 428.7 0 385.8 0C343 0 300 0 257.2 0C214.3 0 171.7 0 128.8 0C86 0 43 0 21.5 0L0 0Z" fill="#6e994f"></path><path d="M0 35L21.5 34.3C43 33.7 86 32.3 128.8 36.7C171.7 41 214.3 51 257.2 57.3C300 63.7 343 66.3 385.8 62.5C428.7 58.7 471.3 48.3 514.2 42.3C557 36.3 600 34.7 642.8 38.2C685.7 41.7 728.3 50.3 771.2 56C814 61.7 857 64.3 878.5 65.7L900 67L900 0L878.5 0C857 0 814 0 771.2 0C728.3 0 685.7 0 642.8 0C600 0 557 0 514.2 0C471.3 0 428.7 0 385.8 0C343 0 300 0 257.2 0C214.3 0 171.7 0 128.8 0C86 0 43 0 21.5 0L0 0Z" fill="#608c41"></path></svg>